<svg width="3000" height="943" viewBox="0 0 3000 943" fill="none" xmlns="http://www.w3.org/2000/svg">
<g clip-path="url(#clip0_2747_4349)">
<path d="M1971.62 701.14V638.34H1395.07V0.220215H1319.7V701.14H1971.62Z" fill="white"/>
<path d="M893.52 929.75C924.92 937.28 956.32 942.32 985.21 942.32C1109.56 942.32 1151.01 858.16 1151.01 738.82V0.220215H1075.66V740.07C1075.66 845.58 1037.96 879.5 975.16 879.5C953.81 879.5 927.44 876.98 897.29 871.97L893.51 929.74L893.52 929.75Z" fill="white"/>
<path d="M2516.38 0L2065.44 700.9H2152.11L2532.72 102.98L2914.58 700.9H3000L2549.04 0H2516.38Z" fill="white"/>
<path d="M450.96 0L0 700.9H86.7L467.28 102.98L849.14 700.9H934.56L483.6 0H450.96Z" fill="white"/>
</g>
<defs>
<clipPath id="clip0_2747_4349">
<rect width="3000" height="942.31" fill="white"/>
</clipPath>
</defs>
</svg>
